<svg width="40" height="40" viewBox="0 0 40 40" fill="none" xmlns="http://www.w3.org/2000/svg">
<path class="lineBehind" d="M38.4 0H1.6C0.715 0 0 0.715 0 1.6V38.4C0 39.285 0.715 40 1.6 40H38.4C39.285 40 40 39.285 40 38.4V1.6C40 0.715 39.285 0 38.4 0ZM24.325 11.945H31.245V13.63H24.325V11.945ZM20 25.84C19.6763 26.4544 19.2141 26.9851 18.65 27.39C18.06 27.8 17.405 28.1 16.71 28.275C15.9829 28.4699 15.2328 28.5657 14.48 28.56H6.2V11.505H14.25C15.065 11.505 15.805 11.58 16.48 11.72C17.15 11.86 17.72 12.1 18.2 12.425C18.675 12.75 19.05 13.185 19.315 13.725C19.575 14.26 19.71 14.93 19.71 15.725C19.71 16.585 19.515 17.295 19.125 17.87C18.73 18.445 18.16 18.91 17.385 19.275C18.44 19.575 19.215 20.11 19.725 20.86C20.245 21.62 20.5 22.53 20.5 23.6C20.5 24.47 20.335 25.215 20 25.84ZM33.94 23.2H25.02C25.02 24.17 25.355 25.1 25.86 25.6C26.37 26.095 27.1 26.345 28.055 26.345C28.745 26.345 29.33 26.17 29.83 25.825C30.325 25.48 30.625 25.115 30.735 24.735H33.725C33.245 26.22 32.515 27.28 31.525 27.92C30.545 28.56 29.345 28.88 27.95 28.88C26.975 28.88 26.1 28.72 25.315 28.415C24.56 28.12 23.88 27.67 23.32 27.09C22.7679 26.4944 22.3411 25.7938 22.065 25.03C21.76 24.185 21.61 23.295 21.62 22.4C21.62 21.475 21.775 20.615 22.075 19.815C22.65 18.26 23.845 17.015 25.37 16.37C26.185 16.03 27.06 15.86 27.945 15.87C28.995 15.87 29.905 16.07 30.695 16.48C31.4555 16.8715 32.1159 17.4326 32.625 18.12C33.13 18.805 33.485 19.585 33.71 20.465C33.925 21.33 34 22.24 33.94 23.2ZM27.84 18.42C27.3 18.42 26.845 18.515 26.495 18.7C26.145 18.885 25.855 19.115 25.635 19.38C25.4255 19.6359 25.2706 19.932 25.18 20.25C25.1 20.515 25.045 20.785 25.025 21.06H30.55C30.47 20.195 30.17 19.555 29.77 19.105C29.35 18.66 28.675 18.42 27.84 18.42ZM15.415 17.915C15.85 17.6 16.06 17.08 16.06 16.365C16.075 16.025 16.005 15.69 15.855 15.385C15.72 15.14 15.52 14.935 15.275 14.79C15.021 14.6359 14.7388 14.534 14.445 14.49C14.125 14.43 13.8 14.4 13.48 14.405H9.965V18.39H13.77C14.425 18.395 14.98 18.235 15.415 17.915ZM16.005 21.515C15.515 21.14 14.86 20.955 14.045 20.955H9.955V25.655H13.965C14.34 25.655 14.685 25.62 15.02 25.55C15.355 25.48 15.655 25.36 15.91 25.19C16.165 25.025 16.37 24.8 16.525 24.51C16.675 24.22 16.75 23.85 16.75 23.405C16.75 22.52 16.5 21.895 16.005 21.515Z" fill="black"/>
</svg>
